<svg width="33" height="20" viewBox="0 0 33 20" fill="none" xmlns="http://www.w3.org/2000/svg">
<path d="M29.2178 7.03747C29.7018 6.3143 30 5.43218 30 4.46427C30 1.96425 28.2143 0 25.8928 0C23.5714 0 21.7857 1.96425 21.7857 4.46427C21.7857 5.43034 22.0839 6.31246 22.5679 7.03747C21.8875 7.27493 21.2821 7.6732 20.8 8.1982C20.8589 7.85894 20.8929 7.50716 20.8929 7.1446C20.8929 4.1089 18.75 1.78743 16.0715 1.78743C13.393 1.78743 11.2501 4.1088 11.2501 7.1446C11.2501 7.50716 11.2841 7.85884 11.343 8.1982C10.859 7.67494 10.2538 7.27503 9.57515 7.03747C10.0591 6.3143 10.3573 5.43218 10.3573 4.46427C10.3573 1.96425 8.57163 0 6.25017 0C3.9287 0 2.14301 1.96425 2.14301 4.46427C2.14301 5.43034 2.44122 6.31246 2.92518 7.03747C1.24827 7.62322 0 9.22676 0 11.0715V14.1072C0 14.6428 0.357117 15.0001 0.892896 15.0001C1.42867 15.0001 1.78579 14.6429 1.78579 14.1072V11.0715C1.78579 9.64288 2.85725 8.57143 4.28582 8.57143H4.64293C4.64293 8.57143 4.64293 8.54824 4.64293 8.54639C5.14649 8.78919 5.6912 8.92855 6.25006 8.92855C6.80893 8.92855 7.35364 8.78929 7.85719 8.54639V8.57143H8.21431C9.64288 8.57143 10.7143 9.64288 10.7143 11.0715C10.7143 11.1072 10.7286 11.1339 10.7304 11.1661C9.42861 12.1072 8.57153 13.6285 8.57153 15.3571V19.1071C8.57153 19.6428 8.92865 20 9.46443 20C10.0001 20 10.3573 19.6429 10.3573 19.1071V15.3571C10.3573 13.5714 11.9645 11.9642 13.7501 11.9642H13.9752C14.6092 12.2982 15.3145 12.4999 16.0716 12.4999C16.8287 12.4999 17.5323 12.2982 18.168 11.9642H18.3931C20.1788 11.9642 21.7859 13.5714 21.7859 15.3571V19.1071C21.7859 19.6428 22.143 20 22.6788 20C23.2145 20 23.5717 19.6429 23.5717 19.1071V15.3571C23.5717 13.6303 22.7145 12.1071 21.4128 11.1661C21.4164 11.1321 21.4289 11.1053 21.4289 11.0715C21.4289 9.64288 22.5003 8.57143 23.9289 8.57143H24.286C24.286 8.57143 24.286 8.54824 24.286 8.54639C24.7896 8.78919 25.3343 8.92855 25.8932 8.92855C26.452 8.92855 26.9967 8.78929 27.5003 8.54639V8.57143H27.8574C29.286 8.57143 30.3574 9.64288 30.3574 11.0715V14.1072C30.3574 14.6428 30.7145 15.0001 31.2503 15.0001C31.7861 15.0001 32.1432 14.6429 32.1432 14.1072V11.0715C32.1428 9.22501 30.8928 7.62322 29.2178 7.03747ZM3.9286 4.46427C3.9286 3.0357 5.00005 1.78569 6.24996 1.78569C7.49987 1.78569 8.57133 3.0357 8.57133 4.46427C8.57133 5.89284 7.49987 7.14286 6.24996 7.14286C5.00005 7.14286 3.9286 5.89284 3.9286 4.46427ZM13.0357 7.14286C13.0357 5.17861 14.4643 3.57148 16.0714 3.57148C17.6785 3.57148 19.1071 5.17861 19.1071 7.14286C19.1071 9.1071 17.8571 10.7142 16.0714 10.7142C14.2857 10.7142 13.0357 9.1071 13.0357 7.14286ZM23.5714 4.46427C23.5714 3.0357 24.6428 1.78569 25.8927 1.78569C27.1427 1.78569 28.2141 3.0357 28.2141 4.46427C28.2141 5.89284 27.1427 7.14286 25.8927 7.14286C24.6428 7.14286 23.5714 5.89284 23.5714 4.46427Z" fill="black"/>
</svg>
