<svg width="20" height="20" viewBox="0 0 20 20" fill="none" xmlns="http://www.w3.org/2000/svg">
<path d="M15.5556 20H3.70373C2.72145 20 1.7794 19.6098 1.08482 18.9152C0.390239 18.2206 2.81697e-05 17.2786 2.81697e-05 16.2963C-0.000742597 16.2079 0.0143094 16.1201 0.0444726 16.037C0.756322 14.1592 2.02101 12.5415 3.67153 11.3975C5.32204 10.2536 7.28073 9.63712 9.28892 9.62964H9.9704C11.9786 9.63712 13.9373 10.2536 15.5878 11.3975C17.2383 12.5415 18.503 14.1592 19.2148 16.037C19.245 16.1201 19.2601 16.2079 19.2593 16.2963C19.2593 17.2786 18.8691 18.2206 18.1745 18.9152C17.4799 19.6098 16.5379 20 15.5556 20ZM1.48151 16.4222C1.51371 16.9895 1.76197 17.5229 2.17528 17.9128C2.58859 18.3027 3.13554 18.5194 3.70373 18.5185H15.5556C16.1238 18.5194 16.6707 18.3027 17.084 17.9128C17.4973 17.5229 17.7456 16.9895 17.7778 16.4222C17.1544 14.8594 16.0779 13.5186 14.6867 12.5722C13.2955 11.6257 11.653 11.1169 9.9704 11.1111H9.28892C7.6063 11.1169 5.96386 11.6257 4.57262 12.5722C3.18139 13.5186 2.10491 14.8594 1.48151 16.4222Z" fill="black"/>
<path d="M9.62966 8.88889C8.75063 8.88889 7.89134 8.62823 7.16046 8.13987C6.42957 7.6515 5.85992 6.95738 5.52353 6.14526C5.18714 5.33315 5.09912 4.43952 5.27061 3.57738C5.4421 2.71524 5.86539 1.92332 6.48696 1.30175C7.10853 0.680183 7.90045 0.256891 8.76259 0.0854007C9.62473 -0.0860891 10.5184 0.00192572 11.3305 0.338315C12.1426 0.674705 12.8367 1.24436 13.3251 1.97525C13.8134 2.70613 14.0741 3.56542 14.0741 4.44445C14.0741 5.62319 13.6058 6.75365 12.7724 7.58714C11.9389 8.42064 10.8084 8.88889 9.62966 8.88889ZM9.62966 1.48148C9.04364 1.48148 8.47078 1.65526 7.98352 1.98083C7.49627 2.30641 7.1165 2.76916 6.89224 3.31057C6.66798 3.85198 6.6093 4.44773 6.72363 5.02249C6.83795 5.59725 7.12015 6.1252 7.53453 6.53958C7.9489 6.95395 8.47685 7.23615 9.05161 7.35048C9.62637 7.4648 10.2221 7.40613 10.7635 7.18187C11.3049 6.95761 11.7677 6.57784 12.0933 6.09058C12.4188 5.60332 12.5926 5.03046 12.5926 4.44445C12.5926 3.65862 12.2805 2.90498 11.7248 2.34931C11.1691 1.79365 10.4155 1.48148 9.62966 1.48148Z" fill="black"/>
<path d="M15.5556 20H3.70373C2.72145 20 1.7794 19.6098 1.08482 18.9152C0.390239 18.2206 2.81697e-05 17.2786 2.81697e-05 16.2963C-0.000742597 16.2079 0.0143094 16.1201 0.0444726 16.037C0.756322 14.1592 2.02101 12.5415 3.67153 11.3975C5.32204 10.2536 7.28073 9.63712 9.28892 9.62964H9.9704C11.9786 9.63712 13.9373 10.2536 15.5878 11.3975C17.2383 12.5415 18.503 14.1592 19.2148 16.037C19.245 16.1201 19.2601 16.2079 19.2593 16.2963C19.2593 17.2786 18.8691 18.2206 18.1745 18.9152C17.4799 19.6098 16.5379 20 15.5556 20ZM1.48151 16.4222C1.51371 16.9895 1.76197 17.5229 2.17528 17.9128C2.58859 18.3027 3.13554 18.5194 3.70373 18.5185H15.5556C16.1238 18.5194 16.6707 18.3027 17.084 17.9128C17.4973 17.5229 17.7456 16.9895 17.7778 16.4222C17.1544 14.8594 16.0779 13.5186 14.6867 12.5722C13.2955 11.6257 11.653 11.1169 9.9704 11.1111H9.28892C7.6063 11.1169 5.96386 11.6257 4.57262 12.5722C3.18139 13.5186 2.10491 14.8594 1.48151 16.4222Z" fill="black"/>
</svg>
