<svg width="23" height="20" viewBox="0 0 23 20" fill="none" xmlns="http://www.w3.org/2000/svg">
<path d="M21.0956 0H1.11111C0.816528 0.000330848 0.534104 0.1175 0.325802 0.325802C0.1175 0.534104 0.000330848 0.816528 0 1.11111V18.8889C0.000330848 19.1835 0.1175 19.4659 0.325802 19.6742C0.534104 19.8825 0.816528 19.9997 1.11111 20H21.0956C21.3902 19.9997 21.6726 19.8825 21.8809 19.6742C22.0892 19.4659 22.2064 19.1835 22.2067 18.8889V1.11111C22.2064 0.816528 22.0892 0.534104 21.8809 0.325802C21.6726 0.1175 21.3902 0.000330848 21.0956 0ZM20.7252 1.48148V4.81394L1.48148 4.7912V1.48148H20.7252ZM1.48148 18.5185V6.27269L20.7252 6.29542V18.5185H1.48148Z" fill="black"/>
</svg>
