<svg width="21" height="22" viewBox="0 0 21 22" fill="none" xmlns="http://www.w3.org/2000/svg">
<path d="M8.46748 1.53126L2.4475 5.46126C0.5175 6.72126 0.5175 9.54122 2.4475 10.8012L8.46748 14.7312C9.54748 15.4412 11.3275 15.4412 12.4075 14.7312L18.3975 10.8012C20.3175 9.54122 20.3175 6.73126 18.3975 5.47126L12.4075 1.54126C11.3275 0.821257 9.54748 0.821257 8.46748 1.53126Z" stroke="#292D32" stroke-width="1.5" stroke-linecap="round" stroke-linejoin="round"/>
<path d="M4.04748 12.0812L4.03748 16.7712C4.03748 18.0412 5.01748 19.4012 6.21748 19.8012L9.40748 20.8612C9.95748 21.0412 10.8675 21.0412 11.4275 20.8612L14.6175 19.8012C15.8175 19.4012 16.7975 18.0412 16.7975 16.7712V12.1312" stroke="#292D32" stroke-width="1.5" stroke-linecap="round" stroke-linejoin="round"/>
<path d="M19.8175 14.0012V8.00122" stroke="#292D32" stroke-width="1.5" stroke-linecap="round" stroke-linejoin="round"/>
</svg>
