<svg width="19" height="19" viewBox="0 0 19 19" fill="none" xmlns="http://www.w3.org/2000/svg">
<g clip-path="url(#clip0_51_12)">
<path d="M5.21413 14.8269C3.65605 13.5735 2.65898 11.6516 2.65898 9.49614C2.65898 6.30993 4.84077 3.64057 7.78965 2.87946V1.11688C3.88653 1.90898 0.948753 5.35959 0.948753 9.49614C0.948753 12.0524 2.07113 14.3446 3.84858 15.9113C5.22438 17.1927 6.07943 15.4825 5.21413 14.8269ZM15.0792 3.01928C14.2031 2.22804 12.9204 3.51075 13.7613 4.14618C15.3338 5.39924 16.341 7.33032 16.341 9.49614C16.341 12.6828 14.1589 15.3527 11.2102 16.1133V17.8763C15.1133 17.0833 18.0511 13.6332 18.0511 9.49602C18.0511 6.90608 16.8987 4.58713 15.0792 3.01928ZM8.54526 4.35665L11.3287 2.68985C11.7336 2.44729 11.7345 2.05222 11.3309 1.80795L8.52172 0.107722C8.11762 -0.136179 7.79148 0.0479363 7.79343 0.520243L7.80856 3.94084C7.80978 4.4129 8.13982 4.59921 8.54526 4.35665ZM10.4786 14.6449L7.6691 16.3451C7.26513 16.5894 7.26598 16.9844 7.67142 17.227L10.4546 18.894C10.8596 19.136 11.1903 18.9503 11.1924 18.4777L11.207 15.0572C11.2085 14.5852 10.8819 14.401 10.4786 14.6449Z" fill="black"/>
</g>
<defs>
<clipPath id="clip0_51_12">
<rect width="19" height="19" fill="white"/>
</clipPath>
</defs>
</svg>
